<?xml version="1.0" encoding="UTF-8"?>
<svg width="16px" height="16px" viewBox="0 0 16 16" version="1.1" xmlns="http://www.w3.org/2000/svg" xmlns:xlink="http://www.w3.org/1999/xlink">
    <!-- Generator: Sketch 42 (36781) - http://www.bohemiancoding.com/sketch -->
    <title>ic-backspace-sm-color</title>
    <desc>Created with Sketch.</desc>
    <defs></defs>
    <g id="Symbols" stroke="none" stroke-width="1" fill="none" fill-rule="evenodd">
        <g id="elements/icons/ic-backspace-sm-color">
            <polygon id="Shape" points="0 0 16 0 16 16 0 16"></polygon>
            <path d="M3.61290323,3 L14.9677419,3 C15.3154499,3 16,3.70714286 16,5 L16,11 C16,12.2928571 15.3154499,13 14.9677419,13 L3.61290323,13 C3.51511036,13 3.05874363,12.7642857 2.58064516,12 L0,8 L2.58064516,4 C3.05874363,3.23571429 3.51511036,3 3.61290323,3 Z M12,6 L11,5 L9,7 L7,5 L6,6 L8,8 L6,10 L7,11 L9,9 L11,11 L12,10 L10,8 L12,6 Z" id="ic-delete" fill="#232730"></path>
        </g>
    </g>
</svg>